<svg width="81" height="81" viewBox="0 0 81 81" fill="none" xmlns="http://www.w3.org/2000/svg">
<g clip-path="url(#clip0_198_689)">
<rect x="0.395996" y="0.783936" width="80.2083" height="80.2083" rx="40.1042" fill="url(#paint0_linear_198_689)"/>
<g clip-path="url(#clip1_198_689)">
<path d="M54.8231 30.8801C53.7504 31.3769 52.6126 31.7031 51.4476 31.8478C52.6593 31.0862 53.5913 29.8827 54.0299 28.4466C52.8764 29.1626 51.6142 29.667 50.2981 29.9381C49.1873 28.6974 47.634 27.9946 46.0089 27.9976C42.7647 27.9976 40.1315 30.749 40.1315 34.1431C40.1315 34.6254 40.1835 35.0954 40.2851 35.5443C35.4001 35.2875 31.0706 32.8417 28.1714 29.1227C27.6652 30.0293 27.3765 31.0862 27.3765 32.2129C27.3765 34.3442 28.4136 36.2257 29.9902 37.3281C29.0568 37.2982 28.1438 37.0345 27.3279 36.5593V36.6376C27.3279 39.6146 29.3539 42.0989 32.0411 42.6647C31.1756 42.9098 30.2682 42.9457 29.3875 42.7698C30.1357 45.212 32.3068 46.9885 34.8774 47.0401C32.8664 48.686 30.3327 49.6704 27.5786 49.6704C27.1103 49.6698 26.6424 49.6411 26.1772 49.5844C28.7778 51.3277 31.8676 52.3465 35.1862 52.3465C45.9961 52.3465 51.9063 42.9793 51.9063 34.8561C51.9063 34.5904 51.9063 34.3247 51.8881 34.0609C53.0381 33.1906 54.0312 32.1136 54.8213 30.8801H54.8231Z" fill="white"/>
</g>
</g>
<defs>
<linearGradient id="paint0_linear_198_689" x1="0.000244719" y1="0.783935" x2="81.0002" y2="80.7839" gradientUnits="userSpaceOnUse">
<stop stop-color="#9C530F"/>
<stop offset="1" stop-color="#CFAF06"/>
</linearGradient>
<clipPath id="clip0_198_689">
<rect x="0.395996" y="0.783936" width="80.2083" height="80.2083" rx="40.1042" fill="white"/>
</clipPath>
<clipPath id="clip1_198_689">
<rect width="28.6458" height="28.6458" fill="white" transform="translate(26.1772 26.5652)"/>
</clipPath>
</defs>
</svg>
