<svg width="81" height="81" viewBox="0 0 81 81" fill="none" xmlns="http://www.w3.org/2000/svg">
<g clip-path="url(#clip0_198_685)">
<rect y="0.783936" width="80.2083" height="80.2083" rx="40.1042" fill="url(#paint0_linear_198_685)"/>
<path d="M48.4593 31.3396H31.7492C30.7995 31.3396 29.8887 31.7169 29.2172 32.3884C28.5457 33.0599 28.1685 33.9707 28.1685 34.9203V46.8561C28.1685 47.8058 28.5457 48.7165 29.2172 49.3881C29.8887 50.0596 30.7995 50.4368 31.7492 50.4368H48.4593C49.4089 50.4368 50.3197 50.0596 50.9912 49.3881C51.6627 48.7165 52.04 47.8058 52.04 46.8561V34.9203C52.04 33.9707 51.6627 33.0599 50.9912 32.3884C50.3197 31.7169 49.4089 31.3396 48.4593 31.3396ZM47.6596 33.7268L40.1042 39.3962L32.5489 33.7268H47.6596ZM48.4593 48.0497H31.7492C31.4326 48.0497 31.129 47.9239 30.9052 47.7001C30.6814 47.4762 30.5556 47.1726 30.5556 46.8561V35.2187L39.3881 41.8431C39.5947 41.998 39.846 42.0818 40.1042 42.0818C40.3625 42.0818 40.6138 41.998 40.8204 41.8431L49.6528 35.2187V46.8561C49.6528 47.1726 49.5271 47.4762 49.3032 47.7001C49.0794 47.9239 48.7758 48.0497 48.4593 48.0497Z" fill="white"/>
</g>
<defs>
<linearGradient id="paint0_linear_198_685" x1="0" y1="0.783936" x2="80" y2="80.7839" gradientUnits="userSpaceOnUse">
<stop stop-color="#9C530F"/>
<stop offset="1" stop-color="#CFAF06"/>
</linearGradient>
<clipPath id="clip0_198_685">
<rect y="0.783936" width="80.2083" height="80.2083" rx="40.1042" fill="white"/>
</clipPath>
</defs>
</svg>
