<svg width="81" height="81" viewBox="0 0 81 81" fill="none" xmlns="http://www.w3.org/2000/svg">
<g clip-path="url(#clip0_198_693)">
<rect x="0.791504" y="0.783936" width="80.2083" height="80.2083" rx="40.1042" fill="url(#paint0_linear_198_693)"/>
<g clip-path="url(#clip1_198_693)">
<path d="M31.7657 27.9866L31.7646 27.987C30.9128 28.3154 30.2043 28.7551 29.4835 29.4759C28.7657 30.1937 28.3295 30.9076 27.9934 31.76C27.6731 32.5872 27.4431 33.5473 27.3782 35.0029L27.3782 35.003C27.3108 36.5073 27.2938 36.9827 27.2938 40.859C27.2938 44.735 27.3108 45.2106 27.3782 46.7206L31.7657 27.9866ZM31.7657 27.9866C32.5935 27.6659 33.554 27.4356 35.0048 27.3706L31.7657 27.9866ZM40.8665 28.4292C44.6879 28.4292 45.1486 28.4462 46.6731 28.515L40.8665 28.4292ZM40.8665 28.4292C37.0486 28.4292 36.5848 28.4405 35.0585 28.5151M40.8665 28.4292L35.0585 28.5151M29.059 32.1743C28.8317 32.7524 28.5828 33.5844 28.5169 35.0578L29.059 32.1743ZM29.059 32.1743C29.3543 31.417 29.7139 30.8559 30.2859 30.284C30.8554 29.7145 31.4171 29.3466 32.1817 29.055L29.059 32.1743ZM35.0585 28.5151C33.5815 28.5813 32.7522 28.837 32.1821 29.0548L35.0585 28.5151ZM40.8665 27.2862C36.9905 27.2862 36.5149 27.3032 35.0049 27.3706L40.8665 27.2862ZM40.8665 27.2862C44.7412 27.2862 45.2189 27.3032 46.7353 27.365C48.1901 27.43 49.1498 27.66 49.9767 27.9802C50.8292 28.3162 51.5431 28.7524 52.2609 29.4702C52.9817 30.191 53.4213 30.8994 53.7497 31.7511M40.8665 27.2862L54.418 31.4937M46.7339 54.353C45.2238 54.4204 44.754 54.4374 40.8722 54.4374C36.9904 54.4374 36.5205 54.4204 35.0104 54.353C33.5548 54.288 32.5946 54.058 31.7674 53.7376C30.915 53.4016 30.2012 52.9654 29.4835 52.2477C28.7627 51.5269 28.3231 50.8185 27.9947 49.9668L46.7659 55.0684M46.7339 54.353L46.7659 55.0684M46.7339 54.353C46.7339 54.353 46.7339 54.353 46.7338 54.353L46.7659 55.0684M46.7339 54.353C48.1844 54.288 49.1455 54.0578 49.98 53.7364M46.7659 55.0684C48.2861 55.0004 49.3241 54.7564 50.2374 54.4047M49.98 53.7364C49.9799 53.7365 49.9799 53.7365 49.9798 53.7365L50.2374 54.4047M49.98 53.7364L50.2374 54.4047M49.98 53.7364C50.8317 53.408 51.5402 52.9684 52.2609 52.2477C52.9786 51.53 53.4148 50.8161 53.7508 49.9638C54.0712 49.1366 54.3013 48.1764 54.3662 46.7207C54.4336 45.2106 54.4506 44.7408 54.4506 40.859C54.4506 36.9771 54.4336 36.5073 54.3662 34.9972M50.2374 54.4047L55.0817 34.9653M54.3662 34.9972L55.0817 34.9653M54.3662 34.9972C54.3662 34.9972 54.3662 34.9973 54.3662 34.9973L55.0817 34.9653M54.3662 34.9972C54.3013 33.5467 54.071 32.5856 53.7497 31.7511M55.0817 34.9653C55.0136 33.4451 54.7697 32.407 54.418 31.4937M53.7497 31.7511C53.7497 31.7512 53.7497 31.7513 53.7498 31.7514L54.418 31.4937M53.7497 31.7511L54.418 31.4937M49.557 29.0571C48.9789 28.8299 48.1469 28.5809 46.6733 28.515L28.5169 46.6714C28.583 48.1495 28.839 48.9792 29.0569 49.5494C29.3485 50.3141 29.7164 50.8758 30.2859 51.4453C30.8578 52.0172 31.4189 52.3769 32.1763 52.6722C32.7544 52.8995 33.5865 53.1483 35.06 53.2142C36.5844 53.283 37.0451 53.3 40.8665 53.3C44.6879 53.3 45.1486 53.283 46.6731 53.2142C48.1513 53.1481 48.981 52.8922 49.5513 52.6743C50.316 52.3826 50.8777 52.0148 51.4472 51.4453C52.0191 50.8733 52.3787 50.3122 52.6741 49.5549C52.9013 48.9767 53.1502 48.1447 53.2161 46.6712C53.2849 45.1467 53.3019 44.686 53.3019 40.8646C53.3019 37.0432 53.2849 36.5825 53.2161 35.0581C53.15 33.5802 52.8942 32.7505 52.6763 32.1802C52.3847 31.4154 52.0168 30.8536 51.4472 30.284C50.8753 29.7121 50.3142 29.3525 49.557 29.0571ZM28.4311 40.8646C28.4311 44.686 28.4481 45.1467 28.5169 46.6712V35.0581C28.4481 36.5825 28.4311 37.0432 28.4311 40.8646ZM27.9946 49.9665C27.6733 49.1321 27.4431 48.171 27.3782 46.7207L27.9946 49.9665ZM34.2425 40.8591C34.2425 37.1991 37.2115 34.2351 40.8665 34.2351C44.5211 34.2351 47.4905 37.2045 47.4905 40.8591C47.4905 44.5137 44.5211 47.4831 40.8665 47.4831C37.2115 47.4831 34.2425 44.519 34.2425 40.8591ZM35.3855 40.8591C35.3855 43.8866 37.839 46.3401 40.8665 46.3401C43.894 46.3401 46.3475 43.8866 46.3475 40.8591C46.3475 37.8315 43.894 35.3781 40.8665 35.3781C37.839 35.3781 35.3855 37.8315 35.3855 40.8591ZM49.4929 33.2297C49.4929 33.7803 49.0465 34.2267 48.496 34.2267C47.9454 34.2267 47.499 33.7803 47.499 33.2297C47.499 32.6791 47.9454 32.2328 48.496 32.2328C49.0465 32.2328 49.4929 32.6791 49.4929 33.2297Z" fill="white" stroke="white" stroke-width="1.43229"/>
</g>
</g>
<defs>
<linearGradient id="paint0_linear_198_693" x1="0.999757" y1="0.783935" x2="80.9998" y2="80.7839" gradientUnits="userSpaceOnUse">
<stop stop-color="#9C530F"/>
<stop offset="1" stop-color="#CFAF06"/>
</linearGradient>
<clipPath id="clip0_198_693">
<rect x="0.791504" y="0.783936" width="80.2083" height="80.2083" rx="40.1042" fill="white"/>
</clipPath>
<clipPath id="clip1_198_693">
<rect width="28.6458" height="28.6458" fill="white" transform="translate(26.5728 26.5652)"/>
</clipPath>
</defs>
</svg>
