<svg width="100" height="138" viewBox="0 0 100 138" fill="none" xmlns="http://www.w3.org/2000/svg">
<path fill-rule="evenodd" clip-rule="evenodd" d="M64.0492 3.41144L-11.6429 0.539423L-50.8928 61.3882L-19.6986 133.177L58.0393 137.358L99.8942 72.4704L64.0492 3.41144ZM76.0577 105.052L96.423 73.4796L66.4402 71.867L45.8225 103.83L76.0577 105.052ZM74.5665 107.364L56.7932 134.917L26.8104 133.305L44.3314 106.142L74.5665 107.364ZM41.5827 106.031L24.0847 133.158L-16.801 130.959L0.352952 104.365L41.5827 106.031ZM-1.63185 103.07L-18.6993 129.53L-35.1592 91.6497L-19.1267 66.7946L-1.63185 103.07ZM-17.6211 64.4605L-0.126289 100.736L20.8439 68.2261L3.09785 32.673L2.88756 32.6661L-17.6211 64.4605ZM-20.3332 64.2928L-36.2944 89.0373L-48.2136 61.607L-33.0018 38.0243L-20.3332 64.2928ZM-31.4963 35.6902L-18.8276 61.9588L1.62331 30.2538L1.89476 30.2626L-11.1446 4.13914L-31.4963 35.6902ZM1.84409 102.054L43.0739 103.719L63.7145 71.7204L22.8288 69.5213L1.84409 102.054ZM63.4693 69.3338L22.958 67.1548L5.79033 32.7604L45.1493 34.0385L63.4693 69.3338ZM43.8974 31.6266L4.58724 30.3501L-9.05977 3.00914L29.8091 4.48396L43.8974 31.6266ZM32.533 4.58732L46.6134 31.7147L76.5748 32.6877L62.5811 5.72744L32.533 4.58732ZM77.8267 35.0996L47.8653 34.1267L66.2162 69.4815L96.5185 71.1113L77.8267 35.0996Z" fill="url(#paint0_linear_901_270)"/>
<defs>
<linearGradient id="paint0_linear_901_270" x1="-13.6557" y1="0.177568" x2="56.5043" y2="141.265" gradientUnits="userSpaceOnUse">
<stop stop-color="white"/>
<stop offset="1" stop-color="#3C3C3C"/>
</linearGradient>
</defs>
</svg>
