<svg width="166" height="56" viewBox="0 0 166 56" fill="none" xmlns="http://www.w3.org/2000/svg">
<mask id="mask0_198_710" style={{ maskType: "luminance" }} maskUnits="userSpaceOnUse" x="3" y="3" width="49" height="50">
<path d="M3.60303 3.94562H51.6873V52.0299H3.60303V3.94562Z" fill="white" />
</mask>
<g mask="url(#mask0_198_710)">
<mask id="mask1_198_710" style={{ maskType: "luminance" }} maskUnits="userSpaceOnUse" x="3" y="3" width="49" height="50">
<path d="M27.6452 3.94562C14.367 3.94562 3.60303 14.7096 3.60303 27.9878C3.60303 41.2659 14.367 52.0299 27.6452 52.0299C40.9233 52.0299 51.6873 41.2659 51.6873 27.9878C51.6873 14.7096 40.9233 3.94562 27.6452 3.94562Z" fill="white" />
</mask>
<g mask="url(#mask1_198_710)">
<path d="M3.60303 3.94562H51.6873V52.0299H3.60303V3.94562Z" fill="black" />
</g>
</g>
<mask id="mask2_198_710" style={{ maskType: "luminance" }} maskUnits="userSpaceOnUse" x="4" y="5" width="47" height="46">
<path d="M4.98779 5.3302H50.3029V50.6453H4.98779V5.3302Z" fill="white" />
</mask>
<g mask="url(#mask2_198_710)">
<mask id="mask3_198_710" style={{ maskType: "luminance" }} maskUnits="userSpaceOnUse" x="4" y="5" width="47" height="46">
<path d="M27.6453 5.3302C15.1319 5.3302 4.98779 15.4744 4.98779 27.9878C4.98779 40.5012 15.1319 50.6453 27.6453 50.6453C40.1588 50.6453 50.3029 40.5012 50.3029 27.9878C50.3029 15.4744 40.1588 5.3302 27.6453 5.3302Z" fill="white" />
</mask>
<g mask="url(#mask3_198_710)">
<path d="M4.98779 5.3302H50.3029V50.6453H4.98779V5.3302Z" fill="#FFDF17" />
</g>
</g>
<path d="M25.0835 20.4698H30.2068V37.8888H25.0835V20.4698Z" fill="#EBECEC" />
<path d="M34.4333 29.3075C34.4333 29.4164 34.4306 29.5254 34.4252 29.6342C34.4198 29.7431 34.4118 29.8517 34.4011 29.9603C34.3904 30.0688 34.3771 30.1769 34.3612 30.2847C34.3451 30.3925 34.3265 30.4999 34.3052 30.6068C34.284 30.7136 34.2601 30.82 34.2336 30.9258C34.2071 31.0315 34.1781 31.1365 34.1464 31.2408C34.1148 31.3451 34.0806 31.4486 34.0439 31.5512C34.0071 31.6538 33.968 31.7554 33.9262 31.8562C33.8846 31.9569 33.8404 32.0565 33.7938 32.155C33.7472 32.2535 33.6981 32.3509 33.6468 32.4471C33.5954 32.5431 33.5417 32.638 33.4856 32.7315C33.4297 32.825 33.3713 32.917 33.3107 33.0076C33.2503 33.0983 33.1875 33.1873 33.1225 33.2749C33.0576 33.3624 32.9906 33.4483 32.9214 33.5326C32.8523 33.6169 32.7811 33.6994 32.7079 33.7802C32.6347 33.8609 32.5596 33.9398 32.4825 34.0169C32.4054 34.094 32.3265 34.1691 32.2457 34.2423C32.165 34.3155 32.0824 34.3867 31.9982 34.4559C31.914 34.525 31.828 34.592 31.7405 34.657C31.653 34.7219 31.5639 34.7846 31.4733 34.8452C31.3826 34.9058 31.2905 34.9641 31.1971 35.0201C31.1036 35.0761 31.0088 35.1298 30.9126 35.1812C30.8165 35.2326 30.7191 35.2816 30.6207 35.3281C30.5221 35.3748 30.4224 35.419 30.3217 35.4606C30.221 35.5024 30.1194 35.5415 30.0168 35.5783C29.9142 35.6151 29.8107 35.6492 29.7063 35.6808C29.6021 35.7125 29.4971 35.7416 29.3913 35.7681C29.2856 35.7945 29.1793 35.8184 29.0723 35.8397C28.9655 35.8609 28.8581 35.8795 28.7503 35.8956C28.6425 35.9116 28.5343 35.9249 28.4258 35.9356C28.3173 35.9462 28.2087 35.9543 28.0998 35.9596C27.991 35.965 27.882 35.9676 27.773 35.9676C27.664 35.9676 27.5551 35.965 27.4462 35.9596C27.3374 35.9543 27.2287 35.9462 27.1202 35.9356C27.0118 35.9249 26.9036 35.9116 26.7958 35.8956C26.688 35.8795 26.5806 35.8609 26.4736 35.8397C26.3668 35.8184 26.2604 35.7945 26.1547 35.7681C26.049 35.7416 25.944 35.7125 25.8397 35.6808C25.7354 35.6492 25.6319 35.6151 25.5293 35.5783C25.4267 35.5415 25.325 35.5024 25.2243 35.4606C25.1236 35.419 25.024 35.3748 24.9254 35.3281C24.8269 35.2816 24.7296 35.2326 24.6334 35.1812C24.5373 35.1298 24.4425 35.0761 24.349 35.0201C24.2555 34.9641 24.1634 34.9058 24.0728 34.8452C23.9822 34.7846 23.8931 34.7219 23.8055 34.657C23.718 34.592 23.6321 34.525 23.5478 34.4559C23.4635 34.3867 23.3811 34.3155 23.3003 34.2423C23.2195 34.1691 23.1406 34.094 23.0635 34.0169C22.9865 33.9398 22.9113 33.8609 22.8381 33.7802C22.7649 33.6994 22.6938 33.6169 22.6247 33.5326C22.5555 33.4483 22.4884 33.3624 22.4235 33.2749C22.3586 33.1873 22.2958 33.0983 22.2352 33.0076C22.1747 32.917 22.1164 32.825 22.0604 32.7315C22.0044 32.638 21.9506 32.5431 21.8993 32.4471C21.8479 32.3509 21.7988 32.2535 21.7523 32.155C21.7056 32.0565 21.6615 31.9569 21.6198 31.8562C21.5781 31.7554 21.5389 31.6538 21.5021 31.5512C21.4655 31.4486 21.4313 31.3451 21.3996 31.2408C21.3679 31.1365 21.3389 31.0315 21.3125 30.9258C21.286 30.82 21.2621 30.7136 21.2407 30.6068C21.2195 30.4999 21.2009 30.3925 21.1849 30.2847C21.1689 30.1769 21.1556 30.0688 21.1449 29.9603C21.1342 29.8517 21.1262 29.7431 21.1209 29.6342C21.1155 29.5254 21.1128 29.4164 21.1128 29.3075C21.1128 29.1984 21.1155 29.0895 21.1209 28.9806C21.1262 28.8718 21.1342 28.7631 21.1449 28.6546C21.1556 28.5462 21.1689 28.438 21.1849 28.3302C21.2009 28.2224 21.2195 28.115 21.2407 28.0081C21.2621 27.9012 21.286 27.7949 21.3125 27.6891C21.3389 27.5835 21.3679 27.4784 21.3996 27.3741C21.4313 27.2698 21.4655 27.1663 21.5021 27.0637C21.5389 26.961 21.5781 26.8594 21.6198 26.7587C21.6615 26.658 21.7056 26.5584 21.7523 26.4599C21.7988 26.3613 21.8479 26.264 21.8993 26.1679C21.9506 26.0717 22.0044 25.9769 22.0604 25.8834C22.1164 25.7899 22.1747 25.6979 22.2352 25.6073C22.2958 25.5166 22.3586 25.4275 22.4235 25.3399C22.4884 25.2524 22.5555 25.1665 22.6247 25.0823C22.6938 24.998 22.7649 24.9155 22.8381 24.8347C22.9113 24.754 22.9865 24.675 23.0635 24.5979C23.1406 24.5209 23.2195 24.4458 23.3003 24.3725C23.3811 24.2994 23.4635 24.2282 23.5478 24.159C23.6321 24.0899 23.718 24.0228 23.8055 23.9579C23.8931 23.893 23.9822 23.8303 24.0728 23.7697C24.1634 23.7091 24.2555 23.6509 24.349 23.5948C24.4425 23.5388 24.5373 23.4851 24.6334 23.4336C24.7296 23.3823 24.8269 23.3333 24.9254 23.2867C25.024 23.2401 25.1236 23.196 25.2243 23.1542C25.325 23.1125 25.4267 23.0733 25.5293 23.0365C25.6319 22.9999 25.7354 22.9657 25.8397 22.934C25.944 22.9024 26.049 22.8733 26.1547 22.8468C26.2604 22.8204 26.3668 22.7964 26.4736 22.7752C26.5806 22.7539 26.688 22.7353 26.7958 22.7194C26.9036 22.7033 27.0118 22.69 27.1202 22.6793C27.2287 22.6686 27.3374 22.6606 27.4462 22.6552C27.5551 22.6499 27.664 22.6473 27.773 22.6473C27.882 22.6473 27.991 22.6499 28.0998 22.6552C28.2087 22.6606 28.3173 22.6686 28.4258 22.6793C28.5343 22.69 28.6425 22.7033 28.7503 22.7194C28.8581 22.7353 28.9655 22.7539 29.0723 22.7752C29.1793 22.7964 29.2856 22.8204 29.3913 22.8468C29.4971 22.8733 29.6021 22.9024 29.7063 22.934C29.8107 22.9657 29.9142 22.9999 30.0168 23.0365C30.1194 23.0733 30.221 23.1125 30.3217 23.1542C30.4224 23.196 30.5221 23.2401 30.6207 23.2867C30.7191 23.3333 30.8165 23.3823 30.9126 23.4336C31.0088 23.4851 31.1036 23.5388 31.1971 23.5948C31.2905 23.6509 31.3825 23.7091 31.4733 23.7697C31.5639 23.8303 31.653 23.893 31.7405 23.9579C31.828 24.0228 31.914 24.0899 31.9982 24.159C32.0824 24.2282 32.165 24.2994 32.2457 24.3725C32.3265 24.4458 32.4054 24.5209 32.4825 24.5979C32.5596 24.675 32.6347 24.754 32.7079 24.8347C32.7811 24.9155 32.8523 24.998 32.9214 25.0823C32.9906 25.1665 33.0576 25.2524 33.1225 25.3399C33.1875 25.4275 33.2503 25.5166 33.3107 25.6073C33.3713 25.6979 33.4297 25.7899 33.4856 25.8834C33.5417 25.9769 33.5954 26.0717 33.6468 26.1679C33.6981 26.264 33.7472 26.3613 33.7938 26.4599C33.8404 26.5584 33.8846 26.658 33.9262 26.7587C33.968 26.8594 34.0071 26.961 34.0439 27.0637C34.0806 27.1663 34.1148 27.2698 34.1464 27.3741C34.1781 27.4784 34.2071 27.5835 34.2336 27.6891C34.2601 27.7949 34.284 27.9012 34.3052 28.0081C34.3265 28.115 34.3451 28.2224 34.3612 28.3302C34.3771 28.438 34.3904 28.5462 34.4011 28.6546C34.4118 28.7631 34.4198 28.8718 34.4252 28.9806C34.4306 29.0895 34.4333 29.1984 34.4333 29.3075Z" fill="#F9A40E" />
<path d="M32.3839 29.3075C32.3839 29.3829 32.3821 29.4584 32.3784 29.5337C32.3746 29.6091 32.3691 29.6844 32.3617 29.7594C32.3544 29.8345 32.345 29.9094 32.334 29.984C32.323 30.0586 32.31 30.133 32.2953 30.207C32.2806 30.281 32.264 30.3547 32.2457 30.4278C32.2274 30.501 32.2073 30.5737 32.1854 30.6459C32.1634 30.7182 32.1398 30.7898 32.1144 30.8608C32.0889 30.9319 32.0618 31.0022 32.0329 31.072C32.0041 31.1417 31.9735 31.2106 31.9412 31.2789C31.909 31.3471 31.8751 31.4145 31.8395 31.481C31.8038 31.5475 31.7667 31.6132 31.7279 31.6779C31.6891 31.7427 31.6487 31.8064 31.6069 31.8691C31.5649 31.9319 31.5214 31.9935 31.4765 32.0542C31.4316 32.1148 31.3851 32.1743 31.3373 32.2326C31.2894 32.2909 31.2402 32.348 31.1895 32.404C31.1388 32.4599 31.0868 32.5145 31.0334 32.5678C30.98 32.6212 30.9254 32.6732 30.8695 32.7239C30.8136 32.7746 30.7565 32.8239 30.6981 32.8718C30.6399 32.9197 30.5803 32.966 30.5198 33.0109C30.4591 33.056 30.3975 33.0993 30.3347 33.1413C30.2719 33.1832 30.2082 33.2236 30.1435 33.2623C30.0788 33.3011 30.0131 33.3384 29.9466 33.3739C29.88 33.4095 29.8126 33.4434 29.7444 33.4756C29.6762 33.508 29.6073 33.5385 29.5375 33.5674C29.4678 33.5963 29.3974 33.6234 29.3264 33.6488C29.2554 33.6742 29.1837 33.698 29.1115 33.7198C29.0393 33.7417 28.9665 33.7619 28.8934 33.7802C28.8201 33.7985 28.7465 33.8151 28.6725 33.8297C28.5985 33.8445 28.5242 33.8574 28.4496 33.8684C28.3749 33.8796 28.3001 33.8888 28.225 33.8962C28.1498 33.9036 28.0747 33.9091 27.9992 33.9128C27.9239 33.9165 27.8485 33.9183 27.773 33.9183C27.6975 33.9183 27.6222 33.9165 27.5468 33.9128C27.4714 33.9091 27.3962 33.9036 27.321 33.8962C27.246 33.8888 27.1711 33.8796 27.0964 33.8684C27.0218 33.8574 26.9474 33.8445 26.8734 33.8297C26.7994 33.8151 26.7259 33.7985 26.6527 33.7802C26.5794 33.7619 26.5067 33.7417 26.4346 33.7198C26.3623 33.698 26.2907 33.6742 26.2196 33.6488C26.1486 33.6234 26.0782 33.5963 26.0085 33.5674C25.9388 33.5385 25.8698 33.5079 25.8016 33.4756C25.7333 33.4434 25.666 33.4095 25.5994 33.3739C25.5329 33.3384 25.4673 33.3011 25.4026 33.2623C25.3378 33.2236 25.2741 33.1832 25.2113 33.1413C25.1486 33.0993 25.0869 33.056 25.0263 33.0109C24.9657 32.966 24.9062 32.9197 24.8479 32.8718C24.7896 32.8239 24.7324 32.7746 24.6765 32.7239C24.6206 32.6732 24.566 32.6212 24.5126 32.5678C24.4592 32.5145 24.4072 32.4599 24.3565 32.404C24.3058 32.348 24.2566 32.2909 24.2087 32.2326C24.1609 32.1743 24.1144 32.1148 24.0695 32.0542C24.0245 31.9935 23.9811 31.9319 23.9392 31.8691C23.8972 31.8064 23.8569 31.7427 23.8181 31.6779C23.7793 31.6132 23.7421 31.5475 23.7066 31.481C23.671 31.4145 23.6371 31.3471 23.6048 31.2789C23.5726 31.2106 23.5419 31.1417 23.5131 31.072C23.4843 31.0022 23.4571 30.9319 23.4317 30.8608C23.4062 30.7898 23.3826 30.7182 23.3606 30.6459C23.3387 30.5737 23.3186 30.501 23.3002 30.4278C23.2819 30.3547 23.2654 30.281 23.2507 30.207C23.236 30.133 23.2231 30.0586 23.212 29.984C23.201 29.9094 23.1917 29.8345 23.1843 29.7594C23.1769 29.6844 23.1713 29.6091 23.1677 29.5337C23.1639 29.4584 23.1621 29.3829 23.1621 29.3075C23.1621 29.232 23.1639 29.1566 23.1677 29.0812C23.1713 29.0059 23.1769 28.9306 23.1843 28.8556C23.1917 28.7804 23.201 28.7055 23.212 28.6309C23.2231 28.5563 23.236 28.482 23.2507 28.408C23.2654 28.3339 23.2819 28.2603 23.3002 28.1871C23.3186 28.1139 23.3387 28.0412 23.3606 27.969C23.3826 27.8968 23.4062 27.8252 23.4317 27.7541C23.4571 27.683 23.4843 27.6127 23.5131 27.543C23.5419 27.4732 23.5726 27.4043 23.6048 27.336C23.6371 27.2679 23.671 27.2005 23.7066 27.1339C23.7421 27.0673 23.7793 27.0017 23.8181 26.937C23.8569 26.8723 23.8972 26.8085 23.9392 26.7458C23.9811 26.6831 24.0245 26.6214 24.0695 26.5608C24.1144 26.5001 24.1609 26.4407 24.2087 26.3823C24.2566 26.324 24.3058 26.2669 24.3565 26.211C24.4072 26.155 24.4592 26.1004 24.5126 26.047C24.566 25.9937 24.6206 25.9416 24.6765 25.8911C24.7324 25.8404 24.7896 25.791 24.8479 25.7432C24.9062 25.6953 24.9657 25.6489 25.0263 25.6039C25.0869 25.559 25.1486 25.5155 25.2113 25.4737C25.2741 25.4317 25.3378 25.3913 25.4026 25.3525C25.4673 25.3138 25.5329 25.2766 25.5994 25.241C25.666 25.2055 25.7333 25.1715 25.8016 25.1392C25.8698 25.107 25.9388 25.0765 26.0085 25.0476C26.0782 25.0187 26.1486 24.9915 26.2196 24.9661C26.2907 24.9406 26.3623 24.917 26.4346 24.8951C26.5067 24.8732 26.5794 24.8531 26.6527 24.8348C26.7259 24.8164 26.7994 24.7999 26.8734 24.7851C26.9474 24.7704 27.0218 24.7576 27.0964 24.7464C27.1711 24.7354 27.246 24.7262 27.321 24.7188C27.3962 24.7114 27.4714 24.7058 27.5468 24.7021C27.6222 24.6985 27.6975 24.6965 27.773 24.6965C27.8485 24.6965 27.9239 24.6985 27.9992 24.7021C28.0747 24.7058 28.1498 24.7114 28.225 24.7188C28.3001 24.7262 28.3749 24.7354 28.4496 24.7464C28.5242 24.7576 28.5985 24.7704 28.6725 24.7851C28.7465 24.7999 28.8201 24.8164 28.8934 24.8348C28.9665 24.8531 29.0393 24.8732 29.1115 24.8951C29.1837 24.917 29.2554 24.9406 29.3264 24.9661C29.3974 24.9915 29.4678 25.0187 29.5375 25.0476C29.6073 25.0765 29.6762 25.107 29.7444 25.1392C29.8126 25.1715 29.88 25.2055 29.9466 25.241C30.0131 25.2766 30.0788 25.3138 30.1435 25.3525C30.2082 25.3913 30.2719 25.4317 30.3347 25.4737C30.3975 25.5155 30.4591 25.559 30.5198 25.6039C30.5803 25.6489 30.6399 25.6953 30.6981 25.7432C30.7565 25.791 30.8136 25.8404 30.8695 25.8911C30.9254 25.9416 30.98 25.9937 31.0334 26.047C31.0868 26.1004 31.1388 26.155 31.1895 26.211C31.2402 26.2669 31.2894 26.324 31.3373 26.3823C31.3851 26.4407 31.4316 26.5001 31.4765 26.5608C31.5214 26.6214 31.5649 26.6831 31.6069 26.7458C31.6487 26.8085 31.6891 26.8723 31.7279 26.937C31.7667 27.0017 31.8038 27.0673 31.8395 27.1339C31.8751 27.2005 31.909 27.2679 31.9412 27.336C31.9735 27.4043 32.0041 27.4732 32.0329 27.543C32.0618 27.6127 32.0889 27.683 32.1144 27.7541C32.1398 27.8252 32.1634 27.8968 32.1854 27.969C32.2073 28.0412 32.2274 28.1139 32.2457 28.1871C32.264 28.2603 32.2806 28.3339 32.2953 28.408C32.31 28.482 32.323 28.5563 32.334 28.6309C32.345 28.7055 32.3544 28.7804 32.3617 28.8556C32.3691 28.9306 32.3746 29.0059 32.3784 29.0812C32.3821 29.1566 32.3839 29.232 32.3839 29.3075Z" fill="#FFC107" />
<path d="M13.8125 18.4205H41.4779V20.4699H13.8125V18.4205Z" fill="#EBECEC" />
<path d="M40.453 18.4204H14.8369V15.8588L27.645 12.2725L40.453 15.8588V18.4204Z" fill="#EBECEC" />
<path d="M27.6455 14.3219L16.8867 17.3958V18.4205H38.4043V17.3958L27.6455 14.3219Z" fill="#F9A40E" />
<path d="M14.3247 20.4698H19.448V22.5191H14.3247V20.4698Z" fill="#EBECEC" />
<path d="M14.3247 35.8394H19.448V37.8886H14.3247V35.8394Z" fill="#EBECEC" />
<path d="M14.8369 22.5192H18.9355V35.8396H14.8369V22.5192Z" fill="#EBECEC" />
<path d="M35.8418 20.4698H40.965V22.5191H35.8418V20.4698Z" fill="#EBECEC" />
<path d="M13.8125 37.8887H41.4779V39.9381H13.8125V37.8887Z" fill="#EBECEC" />
<path d="M12.7876 39.938H42.5024V41.9873H12.7876V39.938Z" fill="#EBECEC" />
<path d="M35.8418 35.8394H40.965V37.8886H35.8418V35.8394Z" fill="#EBECEC" />
<path d="M36.3545 22.5192H40.453V35.8396H36.3545V22.5192Z" fill="#EBECEC" />
<path d="M27.5808 24.1709C24.7558 24.1709 22.4575 26.4692 22.4575 29.2942C22.4575 32.1191 24.7558 34.4174 27.5808 34.4174C30.4057 34.4174 32.704 32.1191 32.704 29.2942C32.704 26.4692 30.4057 24.1709 27.5808 24.1709ZM27.5808 33.3927C25.3208 33.3927 23.4822 31.5542 23.4822 29.2942C23.4822 27.0341 25.3208 25.1956 27.5808 25.1956C29.8408 25.1956 31.6793 27.0341 31.6793 29.2942C31.6793 31.5542 29.8408 33.3927 27.5808 33.3927Z" fill="black" />
<path d="M28.9496 26.8818V26.5173C28.9496 26.2343 28.7203 26.0049 28.4373 26.0049C28.1544 26.0049 27.925 26.2343 27.925 26.5173V26.7278H27.5977V26.5173C27.5977 26.2343 27.3682 26.0049 27.0853 26.0049C26.8025 26.0049 26.573 26.2343 26.573 26.5173V26.7278H26.0714C25.7885 26.7278 25.5591 26.9572 25.5591 27.2402C25.5591 27.5231 25.7885 27.7525 26.0714 27.7525H26.2162V30.8588H26.0714C25.7885 30.8588 25.5591 31.0882 25.5591 31.3712C25.5591 31.654 25.7885 31.8835 26.0714 31.8835H26.573V32.0941C26.573 32.377 26.8025 32.6064 27.0853 32.6064C27.3682 32.6064 27.5977 32.377 27.5977 32.0941V31.8835H27.925V32.0941C27.925 32.377 28.1544 32.6064 28.4373 32.6064C28.7203 32.6064 28.9496 32.377 28.9496 32.0941V31.7294C29.4659 31.4791 29.8227 30.9497 29.8227 30.3385C29.8227 29.9417 29.6723 29.5796 29.4257 29.3057C29.6723 29.0317 29.8227 28.6697 29.8227 28.2729C29.8227 27.6617 29.4659 27.1323 28.9496 26.8818ZM28.7981 30.3385C28.7981 30.6254 28.5646 30.8589 28.2777 30.8589H27.2409V29.818H28.2777C28.5646 29.818 28.7981 30.0515 28.7981 30.3385ZM27.2409 28.7934V27.7525H28.2777C28.5646 27.7525 28.7981 27.986 28.7981 28.2729C28.7981 28.5599 28.5646 28.7934 28.2777 28.7934H27.2409Z" fill="black" />
<mask id="mask4_198_710" style={{ maskType: "luminance" }} maskUnits="userSpaceOnUse" x="12" y="11" width="32" height="32">
<path d="M12.2725 11.7567H43.019V42.5005H12.2725V11.7567Z" fill="white" />
</mask>
<g mask="url(#mask4_198_710)">
<path d="M42.5025 39.4254H41.9902V37.8884C41.9902 37.6055 41.7607 37.3761 41.4778 37.3761V35.8392C41.4778 35.5562 41.2484 35.3268 40.9654 35.3268V23.031C41.2484 23.031 41.4778 22.8017 41.4778 22.5187V20.9818C41.7607 20.9818 41.9902 20.7524 41.9902 20.4695V18.4202C41.9902 18.1373 41.7607 17.9078 41.4778 17.9078H40.9654V15.8585C40.9654 15.6287 40.8125 15.4271 40.5913 15.3651L27.7832 11.7789C27.6928 11.7536 27.5974 11.7536 27.5069 11.7789L14.6989 15.3651C14.4777 15.4271 14.3247 15.6287 14.3247 15.8585V17.9078H13.8124C13.5294 17.9078 13.3001 18.1373 13.3001 18.4202V20.4695C13.3001 20.7524 13.5294 20.9818 13.8124 20.9818V22.5187C13.8124 22.8017 14.0417 23.031 14.3247 23.031V35.3268C14.0417 35.3268 13.8124 35.5562 13.8124 35.8392V37.3761C13.5294 37.3761 13.3001 37.6055 13.3001 37.8884V39.4254H12.7877C12.5048 39.4254 12.2754 39.6547 12.2754 39.9377V41.987C12.2754 42.2699 12.5048 42.4994 12.7877 42.4994H42.5025C42.7853 42.4994 43.0148 42.2699 43.0148 41.987V39.9377C43.0148 39.6547 42.7853 39.4254 42.5025 39.4254ZM30.719 37.3761V35.7665C33.1901 34.6139 34.907 32.1061 34.907 29.2043C34.907 26.3026 33.1901 23.7949 30.719 22.6422V20.9818H35.33V22.5187C35.33 22.8017 35.5593 23.031 35.8423 23.031V35.3268C35.5593 35.3268 35.33 35.5562 35.33 35.8392V37.3761H30.719ZM19.9603 37.3761V35.8392C19.9603 35.5562 19.7309 35.3268 19.448 35.3268V23.031C19.7309 23.031 19.9603 22.8017 19.9603 22.5187V20.9818H24.5711V22.6661C22.1274 23.8292 20.434 26.3226 20.434 29.2044C20.434 32.0863 22.1274 34.5796 24.5711 35.7427V37.3761H19.9603ZM18.4233 23.031V35.3268H17.3987V23.031H18.4233ZM27.6705 35.4162C24.2453 35.4162 21.4586 32.6296 21.4586 29.2043C21.4586 25.7791 24.2453 22.9924 27.6705 22.9924C31.0958 22.9924 33.8824 25.7791 33.8824 29.2043C33.8824 32.6296 31.0959 35.4162 27.6705 35.4162ZM29.6944 22.2563C29.0518 22.0688 28.3728 21.9679 27.6705 21.9679C26.9497 21.9679 26.2533 22.0743 25.5958 22.2714V20.9818H29.6944V22.2563ZM25.5958 36.1374C26.2534 36.3345 26.9497 36.4409 27.6705 36.4409C28.3728 36.4409 29.0518 36.34 29.6944 36.1526V37.3761H25.5958V36.1374ZM36.8669 35.3268V23.031H37.8915V35.3268H36.8669ZM36.3546 36.3515H40.4531V37.3761H36.3546V36.3515ZM39.9408 35.3268H38.9162V23.031H39.9408V35.3268ZM40.4531 22.0064H36.3546V20.9818H40.4531V22.0064ZM15.3493 16.2471L27.6451 12.8043L39.9408 16.2471V17.9078H38.9162V17.3955C38.9162 17.1668 38.7646 16.9657 38.5445 16.9029L27.7858 13.829C27.6938 13.8027 27.5963 13.8027 27.5044 13.829L16.7455 16.9029C16.5256 16.9657 16.374 17.1668 16.374 17.3955V17.9078H15.3493V16.2471ZM37.8915 17.9078H17.3987V17.7819L27.6451 14.8544L37.8915 17.7819V17.9078ZM14.3247 18.9325H40.9654V19.9572H14.3247V18.9325ZM18.9356 20.9818V22.0064H14.837V20.9818H18.9356ZM15.3493 23.031H16.374V35.3268H15.3493V23.031ZM14.837 36.3515H18.9356V37.3761H14.837V36.3515ZM14.3247 38.4007H40.9654V39.4254H14.3247V38.4007ZM41.9902 41.4746H13.3001V40.45H41.9902V41.4746Z" fill="black" />
</g>
<g filter="url(#filter0_d_198_710)">
<path d="M66.8089 27.3994V15.761H71.4688C72.325 15.761 73.0392 15.8879 73.6112 16.1418C74.1833 16.3956 74.6133 16.7479 74.9012 17.1988C75.1891 17.6458 75.3331 18.1611 75.3331 18.7445C75.3331 19.1991 75.2422 19.5988 75.0603 19.9436C74.8785 20.2845 74.6284 20.5649 74.3102 20.7846C73.9958 21.0006 73.6358 21.154 73.2305 21.2449V21.3586C73.6737 21.3775 74.0886 21.5026 74.475 21.7337C74.8652 21.9648 75.1816 22.2887 75.424 22.7054C75.6665 23.1184 75.7877 23.6109 75.7877 24.1829C75.7877 24.8005 75.6343 25.3517 75.3274 25.8366C75.0243 26.3178 74.5754 26.6985 73.9806 26.9789C73.3858 27.2592 72.6527 27.3994 71.7814 27.3994H66.8089ZM69.2696 25.3877H71.2756C71.9613 25.3877 72.4614 25.257 72.7758 24.9956C73.0903 24.7304 73.2475 24.3781 73.2475 23.9386C73.2475 23.6166 73.1699 23.3324 73.0145 23.0862C72.8592 22.8399 72.6376 22.6467 72.3496 22.5065C72.0655 22.3663 71.7264 22.2963 71.3324 22.2963H69.2696V25.3877ZM69.2696 20.6312H71.0937C71.4309 20.6312 71.7302 20.5725 71.9916 20.455C72.2568 20.3338 72.4652 20.1633 72.6167 19.9436C72.7721 19.7238 72.8497 19.4605 72.8497 19.1537C72.8497 18.7331 72.7001 18.3941 72.4008 18.1364C72.1053 17.8788 71.6847 17.75 71.1392 17.75H69.2696V20.6312ZM82.41 15.761V27.3994H79.9493V15.761H82.41ZM86.5516 17.7898V15.761H96.1101V17.7898H92.547V27.3994H90.1148V17.7898H86.5516ZM102.347 15.761L105.16 24.6035H105.268L108.087 15.761H110.815L106.803 27.3994H103.632L99.6139 15.761H102.347ZM114.776 27.3994V15.761H122.618V17.7898H117.237V20.563H122.215V22.5918H117.237V25.3707H122.641V27.3994H114.776ZM127.135 27.3994V15.761H131.727C132.606 15.761 133.356 15.9183 133.977 16.2327C134.602 16.5434 135.078 16.9847 135.403 17.5568C135.733 18.1251 135.898 18.7938 135.898 19.5628C135.898 20.3357 135.731 21.0006 135.398 21.5575C135.064 22.1106 134.581 22.5349 133.949 22.8304C133.32 23.1259 132.558 23.2737 131.664 23.2737H128.59V21.2961H131.266C131.736 21.2961 132.126 21.2317 132.437 21.1029C132.748 20.9741 132.979 20.7808 133.13 20.5232C133.286 20.2656 133.363 19.9455 133.363 19.5628C133.363 19.1764 133.286 18.8506 133.13 18.5854C132.979 18.3202 132.746 18.1194 132.431 17.983C132.121 17.8428 131.729 17.7727 131.255 17.7727H129.596V27.3994H127.135ZM133.42 22.103L136.313 27.3994H133.596L130.766 22.103H133.42ZM146.511 19.1082C146.465 18.6498 146.27 18.2937 145.926 18.0398C145.581 17.786 145.113 17.6591 144.522 17.6591C144.12 17.6591 143.781 17.7159 143.505 17.8296C143.228 17.9394 143.016 18.0929 142.868 18.2899C142.724 18.4869 142.652 18.7104 142.652 18.9604C142.645 19.1688 142.688 19.3507 142.783 19.506C142.881 19.6613 143.016 19.7958 143.186 19.9095C143.357 20.0193 143.554 20.116 143.777 20.1993C144.001 20.2789 144.24 20.3471 144.493 20.4039L145.539 20.6539C146.047 20.7676 146.513 20.9191 146.937 21.1085C147.361 21.298 147.729 21.531 148.04 21.8075C148.35 22.0841 148.591 22.4099 148.761 22.785C148.936 23.16 149.025 23.59 149.028 24.075C149.025 24.7872 148.843 25.4047 148.483 25.9276C148.127 26.4466 147.611 26.8501 146.937 27.138C146.266 27.4221 145.458 27.5642 144.511 27.5642C143.571 27.5642 142.753 27.4203 142.056 27.1323C141.362 26.8444 140.82 26.4182 140.43 25.8537C140.044 25.2854 139.841 24.5826 139.822 23.7454H142.203C142.23 24.1356 142.342 24.4614 142.539 24.7228C142.739 24.9804 143.006 25.1755 143.34 25.3081C143.677 25.437 144.058 25.5014 144.482 25.5014C144.899 25.5014 145.261 25.4407 145.568 25.3195C145.878 25.1983 146.119 25.0297 146.289 24.8137C146.46 24.5978 146.545 24.3496 146.545 24.0693C146.545 23.8079 146.467 23.5881 146.312 23.4101C146.16 23.232 145.937 23.0805 145.641 22.9555C145.35 22.8304 144.992 22.7168 144.567 22.6145L143.3 22.2963C142.319 22.0576 141.544 21.6844 140.976 21.1767C140.408 20.6691 140.125 19.9852 140.129 19.1253C140.125 18.4206 140.313 17.8049 140.692 17.2783C141.074 16.7517 141.599 16.3407 142.266 16.0452C142.933 15.7497 143.69 15.6019 144.539 15.6019C145.403 15.6019 146.157 15.7497 146.801 16.0452C147.449 16.3407 147.952 16.7517 148.312 17.2783C148.672 17.8049 148.858 18.4149 148.869 19.1082H146.511ZM153.244 27.3994V15.761H161.086V17.7898H155.705V20.563H160.683V22.5918H155.705V25.3707H161.109V27.3994H153.244Z" fill="#FFC603" />
</g>
<path d="M64.3491 40.6005V34.2523H68.5523V35.3589H65.6913V36.8716H68.2733V37.9782H65.6913V40.6005H64.3491ZM81.01 34.2523V40.6005H79.6678V34.2523H81.01ZM97.6367 34.2523V40.6005H96.4774L93.7156 36.605H93.6691V40.6005H92.3269V34.2523H93.5048L96.245 38.2447H96.3007V34.2523H97.6367ZM110.053 40.6005H108.614L110.806 34.2523H112.535L114.724 40.6005H113.286L111.695 35.703H111.646L110.053 40.6005ZM109.963 38.1053H113.36V39.153H109.963V38.1053ZM131.01 34.2523V40.6005H129.851L127.089 36.605H127.043V40.6005H125.701V34.2523H126.878L129.619 38.2447H129.674V34.2523H131.01ZM147.933 36.4748H146.575C146.551 36.2992 146.5 36.1431 146.424 36.0068C146.347 35.8683 146.249 35.7505 146.129 35.6534C146.009 35.5563 145.871 35.4819 145.714 35.4302C145.559 35.3785 145.39 35.3527 145.208 35.3527C144.88 35.3527 144.594 35.4343 144.35 35.5976C144.106 35.7588 143.917 35.9944 143.783 36.3043C143.648 36.6122 143.581 36.9863 143.581 37.4264C143.581 37.879 143.648 38.2592 143.783 38.5671C143.919 38.875 144.109 39.1075 144.353 39.2645C144.597 39.4216 144.879 39.5001 145.199 39.5001C145.379 39.5001 145.545 39.4764 145.698 39.4288C145.853 39.3813 145.991 39.3121 146.111 39.2212C146.23 39.1282 146.33 39.0155 146.408 38.8833C146.489 38.751 146.544 38.6002 146.575 38.4307L147.933 38.4369C147.898 38.7283 147.81 39.0093 147.67 39.28C147.531 39.5487 147.344 39.7894 147.109 40.0023C146.875 40.2131 146.596 40.3804 146.272 40.5044C145.949 40.6264 145.585 40.6873 145.177 40.6873C144.611 40.6873 144.105 40.5592 143.659 40.303C143.214 40.0467 142.863 39.6758 142.605 39.1902C142.348 38.7045 142.22 38.1166 142.22 37.4264C142.22 36.7342 142.351 36.1452 142.611 35.6596C142.871 35.174 143.225 34.8041 143.671 34.5499C144.117 34.2936 144.62 34.1655 145.177 34.1655C145.545 34.1655 145.886 34.2172 146.2 34.3205C146.517 34.4238 146.797 34.5747 147.04 34.7731C147.284 34.9694 147.483 35.2101 147.636 35.4953C147.791 35.7805 147.89 36.107 147.933 36.4748ZM159.108 40.6005V34.2523H163.386V35.3589H160.45V36.8716H163.166V37.9782H160.45V39.4939H163.398V40.6005H159.108Z" fill="white" />
<defs>
<filter id="filter0_d_198_710" x="61.7974" y="15.3994" width="105" height="20.1648" filterUnits="userSpaceOnUse" colorInterpolationFilters="sRGB">
<feFlood floodOpacity="0" result="BackgroundImageFix" />
<feColorMatrix in="SourceAlpha" type="matrix" values="0 0 0 0 0 0 0 0 0 0 0 0 0 0 0 0 0 0 127 0" result="hardAlpha" />
<feOffset dy="4" />
<feGaussianBlur stdDeviation="2" />
<feComposite in2="hardAlpha" operator="out" />
<feColorMatrix type="matrix" values="0 0 0 0 0 0 0 0 0 0 0 0 0 0 0 0 0 0 0.25 0" />
<feBlend mode="normal" in2="BackgroundImageFix" result="effect1_dropShadow_198_710" />
<feBlend mode="normal" in="SourceGraphic" in2="effect1_dropShadow_198_710" result="shape" />
</filter>
</defs>
</svg>