<svg width="148" height="99" viewBox="0 0 148 99" fill="none" xmlns="http://www.w3.org/2000/svg">
<path d="M122.178 0.875633C121.905 0.828625 121.647 1.01111 121.6 1.28322C121.553 1.55533 121.735 1.81403 122.007 1.86104L122.178 0.875633ZM22.3602 36.3483L22.0238 35.9784L22.3602 36.3483ZM40.6329 23.0145C40.6935 22.7451 40.5241 22.4776 40.2547 22.417L35.8642 21.4302C35.5948 21.3697 35.3273 21.539 35.2668 21.8084C35.2062 22.0779 35.3755 22.3453 35.645 22.4059L39.5476 23.283L38.6705 27.1857C38.6099 27.4551 38.7792 27.7226 39.0487 27.7831C39.3181 27.8437 39.5856 27.6744 39.6461 27.405L40.6329 23.0145ZM144.662 16.1004C149.118 25.6569 145.451 38.0487 135.617 50.4399C125.804 62.805 109.946 75.0334 90.3602 84.1665L90.7828 85.0729C110.479 75.8883 126.472 63.5721 136.4 51.0615C146.308 38.5772 150.271 25.7625 145.568 15.6778L144.662 16.1004ZM90.3602 84.1665C70.7741 93.2997 51.2132 97.5874 35.4335 97.1562C19.6204 96.7242 7.77031 91.5684 3.31405 82.012L2.40774 82.4346C7.11031 92.5193 19.4743 97.7206 35.4062 98.1559C51.3715 98.5921 71.0865 94.2574 90.7828 85.0729L90.3602 84.1665ZM122.007 1.86104C133.05 3.7686 141.149 8.5675 144.662 16.1004L145.568 15.6778C141.86 7.72654 133.383 2.81136 122.178 0.875633L122.007 1.86104ZM3.31405 82.012C0.420859 75.8075 0.947593 68.416 4.3744 60.5846C7.80141 52.7528 14.112 44.527 22.6967 36.7182L22.0238 35.9784C13.3699 43.8502 6.95784 52.1861 3.45827 60.1838C-0.0414998 68.1819 -0.645189 75.8875 2.40774 82.4346L3.31405 82.012ZM22.6967 36.7182C27.8374 32.042 33.7882 27.5204 40.4125 23.3273L39.8777 22.4824C33.2082 26.704 27.2106 31.2604 22.0238 35.9784L22.6967 36.7182Z" fill="url(#paint0_linear_901_272)"/>
<defs>
<linearGradient id="paint0_linear_901_272" x1="16.2298" y1="30.47" x2="126.32" y2="107.86" gradientUnits="userSpaceOnUse">
<stop stop-color="white" stop-opacity="0.4"/>
<stop offset="0.21784" stop-color="white"/>
<stop offset="0.578937" stop-color="white" stop-opacity="0.44"/>
<stop offset="1" stop-color="white" stop-opacity="0"/>
</linearGradient>
</defs>
</svg>
