<svg width="196" height="62" viewBox="0 0 196 62" fill="none" xmlns="http://www.w3.org/2000/svg">
<g clip-path="url(#clip0_3707_126)">
<path d="M13 0.0184326C13 0.0184326 64.7911 2.51843 98 2.51843C131.209 2.51843 183 0.0184326 183 0.0184326C186.762 8.72424 189.438 13.2179 196 20.0184H0C6.92572 12.9001 9.62151 8.47554 13 0.0184326Z" fill="#969000"/>
<g filter="url(#filter0_di_3707_126)">
<path d="M13 0.0184326C13 0.0184326 64.7909 2.51843 98 2.51843C131.209 2.51843 183 0.0184326 183 0.0184326V51.0184C183 51.0184 131.426 61.0184 98 61.0184C64.5738 61.0184 13 51.0184 13 51.0184V0.0184326Z" fill="#FFD940"/>
</g>
</g>
<defs>
<filter id="filter0_di_3707_126" x="4.9" y="-5.08157" width="186.2" height="77.2" filterUnits="userSpaceOnUse" color-interpolation-filters="sRGB">
<feFlood flood-opacity="0" result="BackgroundImageFix"/>
<feColorMatrix in="SourceAlpha" type="matrix" values="0 0 0 0 0 0 0 0 0 0 0 0 0 0 0 0 0 0 127 0" result="hardAlpha"/>
<feOffset dy="3"/>
<feGaussianBlur stdDeviation="4.05"/>
<feComposite in2="hardAlpha" operator="out"/>
<feColorMatrix type="matrix" values="0 0 0 0 0 0 0 0 0 0 0 0 0 0 0 0 0 0 0.2 0"/>
<feBlend mode="normal" in2="BackgroundImageFix" result="effect1_dropShadow_3707_126"/>
<feBlend mode="normal" in="SourceGraphic" in2="effect1_dropShadow_3707_126" result="shape"/>
<feColorMatrix in="SourceAlpha" type="matrix" values="0 0 0 0 0 0 0 0 0 0 0 0 0 0 0 0 0 0 127 0" result="hardAlpha"/>
<feOffset dy="2"/>
<feGaussianBlur stdDeviation="4.25"/>
<feComposite in2="hardAlpha" operator="arithmetic" k2="-1" k3="1"/>
<feColorMatrix type="matrix" values="0 0 0 0 0 0 0 0 0 0 0 0 0 0 0 0 0 0 0.2 0"/>
<feBlend mode="normal" in2="shape" result="effect2_innerShadow_3707_126"/>
</filter>
<clipPath id="clip0_3707_126">
<rect width="196" height="61" fill="white" transform="translate(0 0.0184326)"/>
</clipPath>
</defs>
</svg>
