<svg width="148" height="147" viewBox="0 0 148 147" fill="none" xmlns="http://www.w3.org/2000/svg">
<mask id="mask0_198_639" style="mask-type:luminance" maskUnits="userSpaceOnUse" x="10" y="10" width="128" height="128">
<path d="M10.5054 10.3721H137.494V137.36H10.5054V10.3721Z" fill="white"/>
</mask>
<g mask="url(#mask0_198_639)">
<mask id="mask1_198_639" style="mask-type:luminance" maskUnits="userSpaceOnUse" x="10" y="10" width="128" height="128">
<path d="M73.9995 10.3721C38.9326 10.3721 10.5054 38.7993 10.5054 73.8662C10.5054 108.933 38.9326 137.36 73.9995 137.36C109.066 137.36 137.494 108.933 137.494 73.8662C137.494 38.7993 109.066 10.3721 73.9995 10.3721Z" fill="white"/>
</mask>
<g mask="url(#mask1_198_639)">
<path d="M10.5054 10.3721H137.494V137.36H10.5054V10.3721Z" fill="black"/>
</g>
</g>
<mask id="mask2_198_639" style="mask-type:luminance" maskUnits="userSpaceOnUse" x="14" y="14" width="120" height="120">
<path d="M14.1621 14.0293H133.837V133.704H14.1621V14.0293Z" fill="white"/>
</mask>
<g mask="url(#mask2_198_639)">
<mask id="mask3_198_639" style="mask-type:luminance" maskUnits="userSpaceOnUse" x="14" y="14" width="120" height="120">
<path d="M73.9996 14.0293C40.9522 14.0293 14.1621 40.8196 14.1621 73.8668C14.1621 106.914 40.9522 133.704 73.9996 133.704C107.047 133.704 133.837 106.914 133.837 73.8668C133.837 40.8196 107.047 14.0293 73.9996 14.0293Z" fill="white"/>
</mask>
<g mask="url(#mask3_198_639)">
<path d="M14.1621 14.0293H133.837V133.704H14.1621V14.0293Z" fill="#FFDF17"/>
</g>
</g>
<path d="M67.2344 54.012H80.7647V100.014H67.2344V54.012Z" fill="#EBECEC"/>
<path d="M91.9267 77.3517C91.9267 77.6394 91.9196 77.9271 91.9055 78.2146C91.8913 78.5021 91.8702 78.7891 91.8418 79.0758C91.8137 79.3623 91.7784 79.6477 91.7364 79.9324C91.694 80.2173 91.6448 80.5008 91.5886 80.7832C91.5325 81.0653 91.4694 81.3462 91.3994 81.6256C91.3295 81.9047 91.2529 82.182 91.1693 82.4576C91.0856 82.7329 90.9954 83.0062 90.8985 83.2772C90.8014 83.5482 90.698 83.8167 90.5877 84.0828C90.4777 84.3488 90.3611 84.6117 90.2379 84.872C90.1149 85.1321 89.9854 85.3892 89.8497 85.6432C89.7141 85.897 89.5722 86.1474 89.4241 86.3943C89.2763 86.6413 89.1222 86.8844 88.9622 87.1237C88.8025 87.363 88.6367 87.5983 88.4651 87.8295C88.2937 88.0607 88.1168 88.2875 87.934 88.5101C87.7515 88.7327 87.5636 88.9505 87.3702 89.1639C87.1767 89.3771 86.9785 89.5855 86.7749 89.7891C86.5714 89.9926 86.363 90.1911 86.1495 90.3843C85.9363 90.5777 85.7183 90.7656 85.496 90.9484C85.2734 91.1309 85.0465 91.3079 84.8153 91.4795C84.5841 91.6509 84.3489 91.8166 84.1095 91.9766C83.8702 92.1366 83.6269 92.2905 83.3802 92.4385C83.1333 92.5863 82.8828 92.7283 82.6288 92.8639C82.375 92.9998 82.118 93.1291 81.8579 93.252C81.5975 93.3752 81.3344 93.4918 81.0684 93.6019C80.8025 93.7121 80.534 93.8156 80.263 93.9127C79.992 94.0098 79.7188 94.1 79.4432 94.1834C79.1679 94.2671 78.8905 94.3439 78.6112 94.4138C78.3321 94.4836 78.0512 94.5467 77.7688 94.603C77.4866 94.659 77.2029 94.7082 76.9182 94.7505C76.6336 94.7928 76.3479 94.8281 76.0614 94.8562C75.7749 94.8844 75.4879 94.9057 75.2005 94.9196C74.913 94.9338 74.6253 94.9409 74.3373 94.9409C74.0495 94.9409 73.7618 94.9338 73.4743 94.9196C73.1868 94.9057 72.8999 94.8844 72.6134 94.8562C72.3269 94.8281 72.0412 94.7928 71.7565 94.7505C71.4719 94.7082 71.1882 94.659 70.9058 94.603C70.6236 94.5467 70.3427 94.4836 70.0636 94.4138C69.7842 94.3439 69.5069 94.2671 69.2316 94.1834C68.956 94.1 68.6827 94.0098 68.4117 93.9127C68.1407 93.8156 67.8723 93.7121 67.6063 93.6019C67.3404 93.4918 67.0773 93.3752 66.8169 93.252C66.5568 93.1291 66.2998 92.9998 66.0457 92.8639C65.792 92.7283 65.5415 92.5863 65.2946 92.4385C65.0477 92.2905 64.8046 92.1366 64.5653 91.9766C64.3259 91.8166 64.0907 91.6509 63.8595 91.4795C63.6283 91.3079 63.4014 91.1309 63.1788 90.9484C62.9562 90.7656 62.7385 90.5777 62.5253 90.3843C62.3118 90.1911 62.1034 89.9926 61.8999 89.7891C61.6963 89.5855 61.4978 89.3771 61.3046 89.1639C61.1112 88.9505 60.9233 88.7327 60.7408 88.5101C60.558 88.2875 60.3811 88.0607 60.2095 87.8295C60.0381 87.5983 59.8723 87.363 59.7123 87.1237C59.5526 86.8844 59.3985 86.6413 59.2507 86.3943C59.1026 86.1474 58.9607 85.897 58.825 85.6432C58.6894 85.3892 58.5599 85.1321 58.4369 84.872C58.3137 84.6117 58.1971 84.3488 58.0871 84.0828C57.9768 83.8167 57.8734 83.5482 57.7763 83.2772C57.6794 83.0062 57.5892 82.7329 57.5055 82.4576C57.4219 82.182 57.3453 81.9047 57.2753 81.6256C57.2054 81.3462 57.1423 81.0653 57.086 80.7832C57.0299 80.5008 56.9808 80.2173 56.9384 79.9324C56.8963 79.6477 56.8611 79.3623 56.8327 79.0758C56.8046 78.7891 56.7835 78.5021 56.7693 78.2146C56.7551 77.9271 56.748 77.6394 56.748 77.3517C56.748 77.0637 56.7551 76.776 56.7693 76.4885C56.7835 76.201 56.8046 75.914 56.8327 75.6276C56.8611 75.3411 56.8963 75.0554 56.9384 74.7707C56.9808 74.486 57.0299 74.2023 57.086 73.9202C57.1423 73.6378 57.2054 73.3571 57.2753 73.0778C57.3453 72.7986 57.4219 72.5213 57.5055 72.2457C57.5892 71.9702 57.6794 71.6969 57.7763 71.4259C57.8734 71.1549 57.9768 70.8864 58.0871 70.6205C58.1971 70.3546 58.3137 70.0914 58.4369 69.8313C58.5599 69.571 58.6894 69.3139 58.825 69.0602C58.9607 68.8061 59.1026 68.5559 59.2507 68.309C59.3985 68.0621 59.5526 67.819 59.7123 67.5797C59.8723 67.3401 60.0381 67.1048 60.2095 66.8736C60.3811 66.6424 60.558 66.4155 60.7408 66.1932C60.9233 65.9706 61.1112 65.7526 61.3046 65.5394C61.4978 65.3262 61.6963 65.1176 61.8999 64.914C62.1034 64.7107 62.3118 64.5122 62.5253 64.3188C62.7385 64.1256 62.9562 63.9375 63.1788 63.755C63.4014 63.5724 63.6283 63.3952 63.8595 63.2239C64.0907 63.0522 64.3259 62.8867 64.5653 62.7267C64.8046 62.5668 65.0477 62.4129 65.2946 62.2648C65.5415 62.1168 65.792 61.9751 66.0457 61.8392C66.2998 61.7036 66.5568 61.5743 66.8169 61.4511C67.0773 61.3281 67.3404 61.2115 67.6063 61.1012C67.8723 60.9912 68.1407 60.8875 68.4117 60.7904C68.6827 60.6936 68.956 60.6033 69.2316 60.5197C69.5069 60.4363 69.7842 60.3595 70.0636 60.2895C70.3427 60.2195 70.6236 60.1564 70.9058 60.1004C71.1882 60.0441 71.4719 59.9949 71.7565 59.9528C72.0412 59.9105 72.3269 59.8753 72.6134 59.8471C72.8999 59.8187 73.1868 59.7977 73.4743 59.7835C73.7618 59.7693 74.0495 59.7625 74.3373 59.7625C74.6253 59.7625 74.913 59.7693 75.2005 59.7835C75.4879 59.7977 75.7749 59.8187 76.0614 59.8471C76.3479 59.8753 76.6336 59.9105 76.9182 59.9528C77.2029 59.9949 77.4866 60.0441 77.7688 60.1004C78.0512 60.1564 78.3321 60.2195 78.6112 60.2895C78.8905 60.3595 79.1679 60.4363 79.4432 60.5197C79.7188 60.6033 79.992 60.6936 80.263 60.7904C80.534 60.8875 80.8025 60.9912 81.0684 61.1012C81.3344 61.2115 81.5975 61.3281 81.8579 61.4511C82.118 61.5743 82.375 61.7036 82.6288 61.8392C82.8828 61.9751 83.1333 62.1168 83.3802 62.2648C83.6269 62.4129 83.87 62.5668 84.1095 62.7267C84.3489 62.8867 84.5841 63.0522 84.8153 63.2239C85.0465 63.3952 85.2734 63.5724 85.496 63.755C85.7183 63.9375 85.9363 64.1256 86.1495 64.3188C86.363 64.5122 86.5714 64.7107 86.7749 64.914C86.9785 65.1176 87.1767 65.3262 87.3702 65.5394C87.5636 65.7526 87.7515 65.9706 87.934 66.1932C88.1168 66.4155 88.2937 66.6424 88.4651 66.8736C88.6367 67.1048 88.8025 67.3401 88.9622 67.5797C89.1222 67.819 89.2763 68.0621 89.4241 68.309C89.5722 68.5559 89.7141 68.8061 89.8497 69.0602C89.9854 69.3139 90.1149 69.571 90.2379 69.8313C90.3611 70.0914 90.4777 70.3546 90.5877 70.6205C90.698 70.8864 90.8014 71.1549 90.8985 71.4259C90.9954 71.6969 91.0856 71.9702 91.1693 72.2457C91.2529 72.5213 91.3295 72.7986 91.3994 73.0778C91.4694 73.3571 91.5325 73.6378 91.5886 73.9202C91.6448 74.2023 91.694 74.486 91.7364 74.7707C91.7784 75.0554 91.8137 75.3411 91.8418 75.6276C91.8702 75.914 91.8913 76.201 91.9055 76.4885C91.9196 76.776 91.9267 77.0637 91.9267 77.3517Z" fill="#F9A40E"/>
<path d="M86.5145 77.3516C86.5145 77.5509 86.5097 77.7501 86.4998 77.9491C86.4899 78.1482 86.4755 78.3469 86.456 78.5451C86.4364 78.7434 86.4119 78.9411 86.3827 79.1384C86.3535 79.3353 86.3193 79.5318 86.2805 79.7273C86.2417 79.9227 86.1979 80.1172 86.1495 80.3103C86.1011 80.5038 86.0481 80.6957 85.9903 80.8863C85.9322 81.0772 85.8699 81.2663 85.8027 81.4539C85.7355 81.6415 85.6637 81.8273 85.5874 82.0116C85.5114 82.1957 85.4305 82.3777 85.3453 82.5579C85.2602 82.7382 85.1707 82.9162 85.0766 83.0918C84.9826 83.2675 84.8845 83.4409 84.782 83.6118C84.6796 83.7829 84.5729 83.9512 84.4624 84.1168C84.3516 84.2826 84.2367 84.4453 84.1181 84.6055C83.9995 84.7655 83.8768 84.9227 83.7505 85.0768C83.624 85.2307 83.494 85.3815 83.3601 85.5293C83.2263 85.6769 83.0889 85.8211 82.9479 85.9621C82.807 86.103 82.6627 86.2404 82.5149 86.3743C82.3674 86.5081 82.2165 86.6382 82.0624 86.7647C81.9085 86.8912 81.7513 87.0136 81.5914 87.1323C81.4312 87.2512 81.2684 87.3657 81.1026 87.4765C80.9368 87.5873 80.7685 87.6938 80.5976 87.7962C80.4268 87.8986 80.2534 87.997 80.0777 88.0908C79.9017 88.1848 79.7238 88.2743 79.5438 88.3595C79.3635 88.4449 79.1815 88.5255 78.9972 88.6019C78.8132 88.6782 78.6273 88.7497 78.4398 88.8168C78.2522 88.884 78.0628 88.9466 77.8721 89.0044C77.6815 89.0622 77.4893 89.1155 77.2962 89.1639C77.1027 89.2123 76.9083 89.2559 76.7128 89.2947C76.5174 89.3337 76.3212 89.3677 76.1242 89.3969C75.927 89.4263 75.7292 89.4506 75.531 89.4701C75.3325 89.4896 75.134 89.5043 74.9347 89.514C74.7357 89.5239 74.5367 89.5287 74.3372 89.5287C74.138 89.5287 73.939 89.5239 73.7399 89.514C73.5407 89.5043 73.3422 89.4896 73.1437 89.4701C72.9454 89.4506 72.7477 89.4263 72.5505 89.3969C72.3535 89.3677 72.157 89.3337 71.9616 89.2947C71.7661 89.2559 71.5719 89.2123 71.3785 89.1639C71.1851 89.1155 70.9932 89.0622 70.8025 89.0044C70.6116 88.9466 70.4225 88.884 70.2349 88.8168C70.0473 88.7497 69.8615 88.6782 69.6772 88.6019C69.4932 88.5255 69.3111 88.4447 69.1309 88.3595C68.9507 88.2743 68.7727 88.1848 68.597 88.0908C68.4213 87.997 68.2479 87.8986 68.0771 87.7962C67.9059 87.6938 67.7379 87.5873 67.5721 87.4765C67.4063 87.3657 67.2435 87.2512 67.0833 87.1323C66.9233 87.0136 66.7662 86.8912 66.6123 86.7647C66.4581 86.6382 66.3073 86.5081 66.1595 86.3743C66.012 86.2404 65.8677 86.103 65.7268 85.9621C65.5858 85.8211 65.4484 85.6769 65.3146 85.5293C65.1807 85.3815 65.0507 85.2307 64.9242 85.0768C64.7979 84.9227 64.6752 84.7655 64.5566 84.6055C64.4377 84.4453 64.3231 84.2826 64.2123 84.1168C64.1015 83.9512 63.9951 83.7829 63.8926 83.6118C63.7902 83.4409 63.6919 83.2675 63.5981 83.0918C63.504 82.9162 63.4145 82.7382 63.3293 82.5579C63.2442 82.3777 63.1633 82.1957 63.087 82.0116C63.0109 81.8273 62.9392 81.6415 62.872 81.4539C62.8048 81.2663 62.7425 81.0772 62.6844 80.8863C62.6266 80.6957 62.5734 80.5038 62.525 80.3103C62.4765 80.1172 62.4329 79.9227 62.3941 79.7273C62.3554 79.5318 62.3211 79.3353 62.292 79.1384C62.2628 78.9411 62.2382 78.7434 62.2187 78.5451C62.1992 78.3469 62.1845 78.1482 62.1749 77.9491C62.165 77.7501 62.1602 77.5509 62.1602 77.3516C62.1602 77.1524 62.165 76.9531 62.1749 76.7541C62.1845 76.5551 62.1992 76.3563 62.2187 76.1581C62.2382 75.9596 62.2628 75.7619 62.292 75.5649C62.3211 75.3677 62.3554 75.1714 62.3941 74.976C62.4329 74.7805 62.4765 74.5861 62.525 74.3927C62.5734 74.1995 62.6266 74.0073 62.6844 73.8167C62.7425 73.6261 62.8048 73.4369 62.872 73.2491C62.9392 73.0615 63.0109 72.8757 63.087 72.6916C63.1633 72.5073 63.2442 72.3253 63.3293 72.1451C63.4145 71.9651 63.504 71.7871 63.5981 71.6112C63.6919 71.4355 63.7902 71.2621 63.8926 71.0912C63.9951 70.9204 64.1015 70.752 64.2123 70.5862C64.3231 70.4207 64.4377 70.2577 64.5566 70.0977C64.6752 69.9375 64.7979 69.7806 64.9242 69.6264C65.0507 69.4723 65.1807 69.3215 65.3146 69.1739C65.4484 69.0261 65.5858 68.8819 65.7268 68.7409C65.8677 68.6 66.012 68.4626 66.1595 68.329C66.3073 68.1951 66.4581 68.0648 66.6123 67.9386C66.7662 67.8121 66.9233 67.6894 67.0833 67.5707C67.2435 67.4521 67.4063 67.3373 67.5721 67.2267C67.7379 67.1159 67.9059 67.0092 68.0771 66.9068C68.2479 66.8044 68.4213 66.7063 68.597 66.6122C68.7727 66.5184 68.9507 66.4287 69.1309 66.3435C69.3111 66.2583 69.4932 66.1777 69.6772 66.1014C69.8615 66.0251 70.0473 65.9533 70.2349 65.8862C70.4225 65.819 70.6116 65.7566 70.8025 65.6988C70.9932 65.6408 71.1851 65.5878 71.3785 65.5394C71.5719 65.4909 71.7661 65.4473 71.9616 65.4083C72.157 65.3695 72.3535 65.3355 72.5505 65.3061C72.7477 65.277 72.9454 65.2527 73.1437 65.2331C73.3422 65.2136 73.5407 65.1989 73.7399 65.189C73.939 65.1794 74.138 65.1743 74.3372 65.1743C74.5367 65.1743 74.7357 65.1794 74.9347 65.189C75.134 65.1989 75.3325 65.2136 75.531 65.2331C75.7292 65.2527 75.927 65.277 76.1242 65.3061C76.3212 65.3355 76.5174 65.3695 76.7128 65.4083C76.9083 65.4473 77.1027 65.4909 77.2962 65.5394C77.4893 65.5878 77.6815 65.6408 77.8721 65.6988C78.0628 65.7566 78.2522 65.819 78.4398 65.8862C78.6273 65.9533 78.8132 66.0251 78.9972 66.1014C79.1815 66.1777 79.3635 66.2583 79.5438 66.3435C79.7238 66.4287 79.9017 66.5184 80.0777 66.6122C80.2534 66.7063 80.4268 66.8044 80.5976 66.9068C80.7685 67.0092 80.9368 67.1159 81.1026 67.2267C81.2684 67.3373 81.4312 67.4521 81.5914 67.5707C81.7513 67.6894 81.9085 67.8121 82.0624 67.9386C82.2165 68.0648 82.3674 68.1951 82.5149 68.329C82.6627 68.4626 82.807 68.6 82.9479 68.7409C83.0889 68.8819 83.2263 69.0261 83.3601 69.1739C83.494 69.3215 83.624 69.4723 83.7505 69.6264C83.8768 69.7806 83.9995 69.9375 84.1181 70.0977C84.2367 70.2577 84.3516 70.4207 84.4624 70.5862C84.5729 70.752 84.6796 70.9204 84.782 71.0912C84.8845 71.2621 84.9826 71.4355 85.0766 71.6112C85.1707 71.7871 85.2602 71.9651 85.3453 72.1451C85.4305 72.3253 85.5114 72.5073 85.5874 72.6916C85.6637 72.8757 85.7355 73.0615 85.8027 73.2491C85.8699 73.4369 85.9322 73.6261 85.9903 73.8167C86.0481 74.0073 86.1011 74.1995 86.1495 74.3927C86.1979 74.5861 86.2417 74.7805 86.2805 74.976C86.3193 75.1714 86.3535 75.3677 86.3827 75.5649C86.4119 75.7619 86.4364 75.9596 86.456 76.1581C86.4755 76.3563 86.4899 76.5551 86.4998 76.7541C86.5097 76.9531 86.5145 77.1524 86.5145 77.3516Z" fill="#FFC107"/>
<path d="M37.4683 48.6001H110.531V54.0123H37.4683V48.6001Z" fill="#EBECEC"/>
<path d="M107.825 48.5995H40.1738V41.8344L73.9993 32.3633L107.825 41.8344V48.5995Z" fill="#EBECEC"/>
<path d="M73.9997 37.7759L45.5864 45.894V48.6H102.413V45.894L73.9997 37.7759Z" fill="#F9A40E"/>
<path d="M38.8213 54.012H52.3516V59.4239H38.8213V54.012Z" fill="#EBECEC"/>
<path d="M38.8213 94.6021H52.3516V100.014H38.8213V94.6021Z" fill="#EBECEC"/>
<path d="M40.1738 59.4238H50.9979V94.6025H40.1738V59.4238Z" fill="#EBECEC"/>
<path d="M95.6475 54.012H109.177V59.4239H95.6475V54.012Z" fill="#EBECEC"/>
<path d="M37.4683 100.014H110.531V105.427H37.4683V100.014Z" fill="#EBECEC"/>
<path d="M34.7617 105.427H113.237V110.839H34.7617V105.427Z" fill="#EBECEC"/>
<path d="M95.6475 94.6021H109.177V100.014H95.6475V94.6021Z" fill="#EBECEC"/>
<path d="M97.001 59.4238H107.825V94.6025H97.001V59.4238Z" fill="#EBECEC"/>
<path d="M73.8306 63.7864C66.3701 63.7864 60.3003 69.8561 60.3003 77.3167C60.3003 84.7772 66.3701 90.847 73.8306 90.847C81.2911 90.847 87.3609 84.7772 87.3609 77.3167C87.3609 69.8561 81.2911 63.7864 73.8306 63.7864ZM73.8306 88.1407C67.862 88.1407 63.0065 83.2853 63.0065 77.3167C63.0065 71.348 67.862 66.4926 73.8306 66.4926C79.7992 66.4926 84.6547 71.348 84.6547 77.3167C84.6547 83.2853 79.7992 88.1407 73.8306 88.1407Z" fill="black"/>
<path d="M77.4439 70.9457V69.9829C77.4439 69.2355 76.8383 68.6299 76.091 68.6299C75.3439 68.6299 74.738 69.2355 74.738 69.9829V70.5388H73.8735V69.9829C73.8735 69.2355 73.2676 68.6299 72.5205 68.6299C71.7734 68.6299 71.1676 69.2355 71.1676 69.9829V70.5388H69.8427C69.0956 70.5388 68.4897 71.1447 68.4897 71.892C68.4897 72.6391 69.0956 73.245 69.8427 73.245H70.2253V81.4486H69.8427C69.0956 81.4486 68.4897 82.0545 68.4897 82.8018C68.4897 83.5489 69.0956 84.1548 69.8427 84.1548H71.1676V84.711C71.1676 85.4581 71.7734 86.064 72.5205 86.064C73.2676 86.064 73.8735 85.4581 73.8735 84.711V84.1548H74.738V84.711C74.738 85.4581 75.3439 86.064 76.091 86.064C76.8383 86.064 77.4439 85.4581 77.4439 84.711V83.7479C78.8076 83.0867 79.7499 81.6886 79.7499 80.0746C79.7499 79.0268 79.3526 78.0703 78.7013 77.347C79.3526 76.6235 79.7499 75.6673 79.7499 74.6195C79.7499 73.0052 78.8076 71.6071 77.4439 70.9457ZM77.0439 80.0746C77.0439 80.8323 76.4271 81.4488 75.6694 81.4488H72.9312V78.7H75.6694C76.4271 78.7 77.0439 79.3166 77.0439 80.0746ZM72.9312 75.9941V73.245H75.6694C76.4271 73.245 77.0439 73.8618 77.0439 74.6195C77.0439 75.3773 76.4271 75.9941 75.6694 75.9941H72.9312Z" fill="black"/>
<mask id="mask4_198_639" style="mask-type:luminance" maskUnits="userSpaceOnUse" x="33" y="31" width="82" height="82">
<path d="M33.4004 31.0012H114.601V112.194H33.4004V31.0012Z" fill="white"/>
</mask>
<g mask="url(#mask4_198_639)">
<path d="M113.236 104.073H111.883V100.014C111.883 99.2669 111.278 98.661 110.53 98.661V94.6021C110.53 93.8547 109.925 93.2488 109.177 93.2488V60.7764C109.925 60.7764 110.53 60.1707 110.53 59.4234V55.3644C111.278 55.3644 111.883 54.7586 111.883 54.0115V48.5993C111.883 47.8522 111.278 47.2463 110.53 47.2463H109.177V41.8342C109.177 41.2273 108.773 40.6949 108.189 40.5311L74.3636 31.06C74.1248 30.9933 73.8728 30.9933 73.634 31.06L39.8085 40.5311C39.2245 40.6949 38.8204 41.2273 38.8204 41.8342V47.2463H37.4674C36.72 47.2463 36.1144 47.8522 36.1144 48.5993V54.0115C36.1144 54.7586 36.72 55.3644 37.4674 55.3644V59.4234C37.4674 60.1707 38.073 60.7764 38.8204 60.7764V93.2488C38.073 93.2488 37.4674 93.8547 37.4674 94.6021V98.661C36.72 98.661 36.1144 99.2669 36.1144 100.014V104.073H34.7612C34.0141 104.073 33.4082 104.679 33.4082 105.426V110.838C33.4082 111.585 34.0141 112.191 34.7612 112.191H113.236C113.984 112.191 114.589 111.585 114.589 110.838V105.426C114.589 104.679 113.984 104.073 113.236 104.073ZM82.1169 98.661V94.4102C88.643 91.3663 93.1773 84.7431 93.1773 77.0798C93.1773 69.4164 88.643 62.7938 82.1169 59.7496V55.3644H94.2943V59.4234C94.2943 60.1707 94.8999 60.7764 95.6472 60.7764V93.2488C94.8999 93.2488 94.2943 93.8547 94.2943 94.6021V98.661H82.1169ZM53.7036 98.661V94.6021C53.7036 93.8547 53.0977 93.2488 52.3507 93.2488V60.7764C53.0977 60.7764 53.7036 60.1707 53.7036 59.4234V55.3644H65.8807V59.8125C59.4269 62.8843 54.9547 69.4692 54.9547 77.08C54.9547 84.6909 59.4269 91.2755 65.8807 94.3473V98.661H53.7036ZM49.6444 60.7764V93.2488H46.9385V60.7764H49.6444ZM74.066 93.4851C65.02 93.4851 57.6607 86.1257 57.6607 77.0798C57.6607 68.0338 65.02 60.6744 74.066 60.6744C83.112 60.6744 90.4713 68.0338 90.4713 77.0798C90.4713 86.1257 83.1122 93.4851 74.066 93.4851ZM79.411 58.7303C77.714 58.2352 75.9207 57.9687 74.066 57.9687C72.1624 57.9687 70.3232 58.2496 68.5867 58.7703V55.3644H79.411V58.7303ZM68.5867 95.3897C70.3234 95.9102 72.1624 96.1913 74.066 96.1913C75.9207 96.1913 77.714 95.9246 79.411 95.4298V98.661H68.5867V95.3897ZM98.3532 93.2488V60.7764H101.059V93.2488H98.3532ZM97.0002 95.955H107.824V98.661H97.0002V95.955ZM106.471 93.2488H103.765V60.7764H106.471V93.2488ZM107.824 58.0704H97.0002V55.3644H107.824V58.0704ZM41.5263 42.8604L73.9988 33.768L106.471 42.8604V47.2463H103.765V45.8933C103.765 45.2892 103.365 44.7581 102.784 44.5923L74.3705 36.4742C74.1276 36.4047 73.87 36.4047 73.6272 36.4742L45.2136 44.5923C44.6328 44.7581 44.2325 45.2892 44.2325 45.8933V47.2463H41.5263V42.8604ZM101.059 47.2463H46.9385V46.9137L73.9988 39.1822L101.059 46.9137V47.2463ZM38.8204 49.9523H109.177V52.6585H38.8204V49.9523ZM50.9974 55.3644V58.0704H40.1733V55.3644H50.9974ZM41.5263 60.7764H44.2325V93.2488H41.5263V60.7764ZM40.1733 95.955H50.9974V98.661H40.1733V95.955ZM38.8204 101.367H109.177V104.073H38.8204V101.367ZM111.883 109.485H36.1144V106.779H111.883V109.485Z" fill="black"/>
</g>
</svg>
